# xmcd
#
# Track frame offsets:
#	150
#	16773
#	32863
#	49687
#	66140
#	89487
#	108043
#	122779
#	141704
#	155584
#	173867
#	193461
#	210693
#	228600
#	246757
#	265452
#	282279
#	296686
#
# Disc length: 4266 seconds
#
# Revision: 3
# Processed by: cddbd v1.5.2PL0 Copyright (c) Steve Scherf et al.
# Submitted via: audiograbber 1.83.01
#
DISCID=1910a812
DTITLE=Various Artist - SFG356
DYEAR=2015
DGENRE=karaoke
TTITLE0=Justin Bieber - What do you mean?
TTITLE1=Fetty Wap f. Remy Boyz - 679
TTITLE2=Little Mix - Hair
TTITLE3=Galantis - Peanut butter jelly
TTITLE4=Macklemore and Ryan Lewis - Downtown
TTITLE5=Stereophonics - I wanna get lost with you
TTITLE6=Stylo G f. Gyptian - My number 1
TTITLE7=Ella Eyre - Good times
TTITLE8=Phillip George - Alone no more
TTITLE9=R City f. Adam Levine - Locked away
TTITLE10=Katie Melua - Wonderful life
TTITLE11=Natalie La Rose f. Fetty wap - Around the world
TTITLE12=Leona Lewis - I am
TTITLE13=Weeknd - The hills
TTITLE14=Drake - Hotline bling
TTITLE15=Duke Dumont - Ocean drive
TTITLE16=Nelly f. Jeremih - The fix
TTITLE17=David Gilmour - Rattle that lock
EXTD=
EXTT0=
EXTT1=
EXTT2=
EXTT3=
EXTT4=
EXTT5=
EXTT6=
EXTT7=
EXTT8=
EXTT9=
EXTT10=
EXTT11=
EXTT12=
EXTT13=
EXTT14=
EXTT15=
EXTT16=
EXTT17=
PLAYORDER=
